<?xml version="1.0" encoding="UTF-8"?>
<svg width="106.08mm" height="9.9908mm" version="1.1" viewBox="0 0 106.08 9.9908" xmlns="http://www.w3.org/2000/svg" xmlns:cc="http://creativecommons.org/ns#" xmlns:dc="http://purl.org/dc/elements/1.1/" xmlns:rdf="http://www.w3.org/1999/02/22-rdf-syntax-ns#">
  <metadata>
    <rdf:RDF>
      <cc:Work rdf:about="">
        <dc:format>image/svg+xml</dc:format>
        <dc:type rdf:resource="http://purl.org/dc/dcmitype/StillImage"/>
        <dc:title/>
      </cc:Work>
    </rdf:RDF>
  </metadata>
  <g transform="translate(-2.2624 -719.85)">
    <path d="m107.73 719.85c-25.8 0.72342-51.575 2.3628-77.386 2.659-9.0443 0.0579-18.121-0.0675-27.138 0.44424-2.2792 3.7878 6.3477 1.7832 8.8948 2.0717 23.126-0.61857 46.302-0.34372 69.405 0.80819-22.935 1.7227-46.009 2.5528-69.007 1.4185-4.2852-1.1252-2.1748 3.3066 1.1167 2.0875 18.407 1.051 36.865 0.28014 55.266-0.55529 7.3172-0.35757 14.615-1.015 21.889-1.634 4.8225-3.0778-3.945-3.2786-6.3139-3.3142-4.9527-0.27105-9.9166-0.2252-14.869-0.49742 12.347-0.42015 24.728-1.0778 37.051-1.3761 1.1007-0.022 2.5127-1.1861 1.091-2.1121z" color="#000000" color-rendering="auto" dominant-baseline="auto" fill="#212529" image-rendering="auto" shape-rendering="auto" solid-color="#000000" stop-color="#000000" style="font-feature-settings:normal;font-variant-alternates:normal;font-variant-caps:normal;font-variant-east-asian:normal;font-variant-ligatures:normal;font-variant-numeric:normal;font-variant-position:normal;font-variation-settings:normal;inline-size:0;isolation:auto;mix-blend-mode:normal;shape-margin:0;shape-padding:0;text-decoration-color:#000000;text-decoration-line:none;text-decoration-style:solid;text-indent:0;text-orientation:mixed;text-transform:none;white-space:normal"/>
  </g>
</svg>
