<?xml version="1.0" encoding="UTF-8"?>
<svg width="77px" height="77px" viewBox="0 0 77 77" version="1.1" xmlns="http://www.w3.org/2000/svg" xmlns:xlink="http://www.w3.org/1999/xlink">
    <!-- Generator: Sketch 52.5 (67469) - http://www.bohemiancoding.com/sketch -->
    <title>Artboard</title>
    <desc>Created with Sketch.</desc>
    <g id="Artboard" stroke="none" stroke-width="1" fill="none" fill-rule="evenodd">
        <g id="logo" transform="translate(2.000000, 0.000000)" fill="#50575F" fill-rule="nonzero">
            <path d="M53.5226322,0 C51.9342186,1.12772917 52.0161287,0.983354167 50.7328704,1.40204167 C47.7905309,2.3629375 44.9686475,1.83516667 41.6199697,1.55604167 C40.6129572,1.44375 39.6139752,1.37797917 38.6390843,1.3715625 C33.7164476,1.337875 29.5358201,2.78002083 28.7440224,6.80647917 C27.2840953,7.690375 25.941412,8.76035417 24.6115774,9.8319375 C21.7720271,12.06975 19.6343339,14.8048542 18.1760128,18.1014167 C16.184473,22.9700625 17.9832832,28.1948333 18.8746579,33.12925 C19.0866605,34.28425 19.3082996,35.3847083 19.4271495,35.8098125 C19.595788,36.4081667 19.8929129,36.97925 20.2157351,37.4925833 C20.2912208,37.5054167 20.6895288,36.892625 20.7842876,36.6215208 C20.9224105,36.2268958 20.9079558,35.59325 20.7569842,35.0478333 C20.4229194,33.8206458 20.1049155,32.8244583 20.0776121,32.3239583 C20.0294297,31.3839167 20.2125229,30.5160625 20.5562241,30.0861458 C20.6782862,29.93375 20.9577442,30.7197917 20.8854706,31.01175 C20.8003484,31.3630625 20.7361051,31.964625 20.7634085,32.2421458 C20.8388943,33.1821875 20.9770172,34.188 21.1488678,35.0670833 C21.3689009,36.2012292 21.4636596,36.9295208 21.4235076,37.2118542 C21.3945981,37.4171875 21.2982333,37.624125 20.9288348,38.259375 C20.6076187,38.8160208 20.4405863,39.2667917 20.414889,39.664625 C20.3875857,40.0528333 20.5048296,41.0233542 20.614043,41.2607708 C20.773045,41.6313333 21.251657,42.0211458 21.6692379,42.1173958 C22.0691519,42.2697917 22.269912,42.5858125 22.4754903,42.9403333 C22.9749813,43.8916042 23.3604407,45.0498125 23.7426878,46.7951458 C23.9289931,47.6309167 24.084783,48.3768542 24.1345714,48.7682708 C21.0508969,48.7714792 17.101545,48.7730833 13.5039247,48.7730833 C12.29294,48.7923333 10.1054584,48.2244583 8.09946389,48.0929167 C7.80876332,44.958375 6.43074626,41.3169167 4.07302011,41.1051667 C2.46372746,40.9591875 1.12907458,41.570375 0,44.1097708 L0.0321216097,44.246125 C0.698645011,43.6894792 1.40210826,41.9874583 3.93650327,42.1045625 C5.88307282,42.1927917 6.53192933,45.87275 6.72465899,48.0865 C5.53937159,48.173125 4.53075305,48.5372708 4.00395865,49.4468333 L3.99271609,49.4468333 C3.99271609,49.4484375 3.99271609,49.4516458 3.99753433,49.4548542 C3.99271609,49.4580625 3.99271609,49.4612708 3.99271609,49.4644792 L4.00395865,49.4644792 C4.54681385,50.3965 5.59237225,50.7574375 6.82102382,50.829625 C7.64173095,74.0098333 29.4571222,77 35.4188929,77 C57.6598955,77 65.4461737,61.9047917 66.6170064,55.9260625 C67.1646798,58.4734792 65.4397494,61.7187083 65.0269867,64.1137292 C69.7183478,58.6964583 68.8703373,53.4877292 68.0126903,48.2485208 C68.72579,49.0955208 69.6910444,49.6200833 71,49.3297292 C70.0668672,48.7073125 68.8012758,49.1436458 68.0432058,46.517625 C67.7123532,45.3834792 67.4264709,44.5332708 67.1421947,43.8194167 C66.5286719,41.5206458 65.6581763,39.3245417 64.5885267,37.1845833 C63.6859095,34.8633542 64.2817653,33.3586458 64.1918248,31.3662708 C65.8155722,36.7145625 66.8306151,38.1374583 68.72579,38.6973125 C63.9589432,32.9608125 65.5907209,24.0785417 62.897324,16.15075 C64.116339,16.8662083 65.5072047,17.0811667 66.9880109,16.2068958 C65.5553872,15.7994375 64.1259755,16.8758333 62.0701925,13.8583958 C60.3340195,10.4848333 57.8188975,7.9935625 54.7673445,5.79585417 C53.1323546,4.7306875 51.3174837,4.01522917 49.4929762,3.35110417 C51.3512113,2.88589583 53.4262673,1.23360417 53.5226322,0 Z M50.4052299,17.8174792 C52.8528966,18.7093958 55.5511118,22.0973958 55.5205963,25.4212292 L55.5205963,25.5591875 L55.5205963,25.6073125 C55.454747,30.1214375 53.40057,32.5485417 53.4872984,35.55475 C53.5981179,39.0951458 55.1238944,40.3303542 55.4274436,40.9206875 C54.9070735,38.7374167 54.6019182,35.9910833 55.2893207,33.8158333 C56.172665,31.0181667 57.0640396,28.70175 56.9997964,26.5104583 C56.9676748,25.997125 56.7492479,24.0769375 56.6030945,23.2267292 C59.22743,27.0093542 56.034542,32.5100417 56.9532201,36.1097917 C58.5496641,42.3804792 65.7047526,43.1729375 63.5750899,55.8073542 C61.700794,66.9146042 48.8585744,75.3445 35.6951388,75.3445 C25.9365938,75.3445 9.02617233,69.9496875 8.19101047,50.8135833 C10.1745199,50.6724167 12.3073948,50.1205833 13.5039247,50.1398333 C17.120818,50.1398333 21.251657,50.1414375 24.364241,50.1430417 C24.9488543,52.7770833 25.3873142,53.4123333 27.6053114,55.1672917 C30.072251,57.105125 30.6472278,57.3409375 34.2962427,57.3762292 C37.9468636,57.413125 39.0293619,56.6318958 42.5707693,53.2856042 C43.3352636,52.3904792 43.6661162,51.2178333 44.0371208,50.1157708 C47.6797114,50.0820833 50.3361685,50.0179167 52.9492614,49.896 C55.6105368,49.7756875 55.9863596,49.896 60.2745945,49.4548542 C55.9863596,49.0137083 55.6105368,49.1340208 52.9492614,49.0121042 C50.4052299,48.8966042 47.8290768,48.8308333 44.3454883,48.79875 C44.6377949,47.4881458 45.0553758,46.2080208 45.5002601,44.9423333 C45.7748999,44.1963958 46.0977221,43.4697083 46.4285747,42.7462292 L46.7899428,42.6339375 C47.4869817,42.3868958 48.1037166,41.8575208 48.3494469,41.1420625 C48.6658448,40.194 48.4409935,39.1288333 47.8290768,38.3540208 C47.6186803,38.0636667 47.3568892,37.6931042 47.2492818,37.5294792 C46.9264596,37.0193542 46.9184292,36.7354167 47.1914629,34.8392917 C47.4211324,33.2511667 47.4468297,32.4202083 47.2878277,31.6149167 C47.2557061,31.1545208 47.2524939,30.2080625 47.2380392,29.953 C47.3601013,30.020375 47.6251046,30.6235417 47.8933201,31.4400625 C48.1599294,32.2597917 48.2032936,32.4298333 48.2643247,33.1276458 C48.33178,33.9201042 48.0346551,34.5072292 47.7905309,35.6895 C47.6684688,36.2990833 47.5608614,36.8653542 47.5608614,36.9423542 C47.5608614,37.0241667 47.6186803,37.1974167 47.6797114,37.3321667 C47.8226525,37.63375 48.090868,38.05725 48.1406565,38.05725 C49.0159703,37.0931458 49.5299161,35.9028542 49.987649,34.6949167 C50.4694732,33.3281667 50.6108082,31.878 50.9480851,30.4711458 C51.2211188,29.2455625 51.5359106,28.018375 51.6338815,26.7607083 C51.8314294,24.3063333 51.7157916,22.5738333 51.1729364,20.0167917 C51.0428439,19.4392917 50.6670211,18.3372292 50.4052299,17.8174792 Z M41.7966385,29.9080833 C42.7361956,29.8968542 43.6661162,30.01075 44.5510666,30.2658125 C45.7540209,30.7262083 45.9226593,31.7993958 46.1442984,33.004125 C46.2679666,33.774125 46.2631484,34.3275625 46.1234194,35.2323125 C46.0254485,36.5445208 45.5034723,37.5599583 44.3631552,38.2738125 C42.643043,38.5914375 40.8040808,38.8978333 39.3457597,37.7604792 C38.1219264,36.0761042 37.3847354,33.947375 37.6657995,31.8715833 C37.8440745,31.0197708 38.2407763,30.5770208 39.0566652,30.3123333 C39.9351913,30.0604792 40.8651119,29.9225208 41.7966385,29.9080833 Z M27.5298256,30.0604792 C28.4083516,30.0524583 29.2965141,30.1455 29.7847626,30.4567083 C31.8806976,31.8731875 31.2077499,34.178375 30.3790124,36.2012292 C29.1728459,38.8497083 26.5645712,38.7518542 24.0366005,38.731 C22.6377044,38.3219375 22.509218,37.1765625 22.3068519,35.9525833 C22.1333952,34.7703125 21.7639967,33.5030208 22.0723641,32.3143333 C22.8641618,30.4021667 25.7583188,30.1823958 27.5298256,30.0604792 Z M59.4956455,30.3909375 C59.506888,35.4809583 60.3773837,37.9818542 62.1247992,41.5864167 C61.0953016,39.6245208 59.6241319,38.5080208 59.0764585,36.1627292 C58.029294,31.6341667 59.1583686,31.887625 59.4956455,30.3909375 Z M34.0986948,34.0773125 C34.3749406,34.3564375 34.5082453,34.7414375 34.7475513,35.0478333 C34.9322505,34.7318125 35.121768,34.4173958 35.359468,34.1366667 C35.4831362,34.139875 35.6341077,34.3837083 35.7706246,34.8200417 C36.3552379,36.4338333 36.4692696,38.2096458 37.2273396,39.760875 C37.9356211,40.8837917 36.9687606,41.5382917 35.9071414,41.589625 C35.1330106,41.5880208 34.8053702,41.06025 34.3508494,40.5372917 C34.2336055,40.8789792 34.0103604,41.09875 33.743751,41.32975 C33.065985,41.897625 31.7377565,41.6874792 31.5321782,40.7923542 C31.8052118,39.0823125 32.6773135,37.5118333 33.2490782,35.872375 C33.5333544,35.2740208 33.5365666,34.8152292 34.0986948,34.0773125 Z M24.1538444,42.71575 C24.4959396,42.71575 25.4354966,43.3526042 25.6266202,43.7119375 C25.7583188,43.9509583 26.0586559,44.881375 26.0795349,45.1075625 C26.1132626,45.3770625 26.0313525,46.0155208 25.9478363,46.1887708 C25.8868053,46.3122917 25.8402289,46.3299375 25.7695614,46.2497292 C25.7101364,46.1823542 24.923157,44.6744375 24.4204538,43.6766458 C24.025358,42.8777708 23.9835999,42.71575 24.1538444,42.71575 Z M43.7833601,43.2146458 C43.7962087,43.21625 43.8154817,43.2210625 43.8331486,43.225875 C43.9391499,43.2691875 43.8652702,43.6445625 43.4669622,45.0081042 C43.3914765,45.4187708 43.2083833,45.7428125 42.9401678,46.0123125 C42.8518334,46.0123125 42.8116814,45.9096458 42.6735585,45.3401667 C42.5563146,44.8541042 42.543466,44.4209792 42.6253761,44.0327708 C42.7667112,43.5467083 43.3384758,43.3975208 43.7833601,43.2146458 Z M41.4015427,46.1871667 C41.4352704,46.18075 41.467392,46.1983958 41.5091501,46.2320833 C41.6536974,46.3331458 41.6745764,46.5994375 41.5782116,47.1207917 C41.4609677,47.7913333 41.4352704,47.865125 41.2618137,47.9341042 C41.186328,47.9677917 41.0514172,47.9918542 40.9614767,47.9918542 C40.7992626,47.9629792 40.7575045,47.8314375 40.7960504,47.6325208 C40.7960504,47.2154375 40.9181125,46.8528958 41.1943584,46.4245833 C41.2987536,46.2641667 41.3517542,46.1951875 41.4015427,46.1871667 Z M27.5362499,46.2176458 C27.6470695,46.2176458 27.9811342,46.4582708 28.1048024,46.6251042 C28.2429253,46.8015625 28.4003212,47.8522917 28.3119868,48.0335625 C28.2108037,48.2613542 27.7161309,48.1474583 27.5796141,47.8635208 C27.4960979,47.6934792 27.29855,46.7758958 27.29855,46.5577292 C27.29855,46.3556042 27.3965209,46.2176458 27.5362499,46.2176458 Z M40.209831,46.4951667 C40.3447418,46.6876667 40.3800756,46.9347083 40.3511661,47.4769167 L40.3238627,47.971 L40.1825277,48.1121667 C40.0974054,48.1907708 39.9528581,48.2870208 39.8661298,48.327125 C39.6750062,48.4169583 39.5288529,48.4249792 39.5015495,48.3527917 C39.4694279,48.2565417 39.5240347,47.64375 39.5834596,47.4368125 C39.6525211,47.2234583 39.9624946,46.5866042 40.0652838,46.4518542 C40.1118601,46.3283333 40.1664668,46.4823333 40.209831,46.4951667 Z M32.1457009,46.4662917 C32.4364015,46.5400833 32.5648879,46.8015625 32.7238899,47.0389792 L32.8314973,47.2507292 L32.6805257,47.7752917 C32.6002217,48.0640417 32.5150994,48.3239167 32.4894021,48.3527917 C32.4604927,48.384875 32.3528853,48.4009167 32.1938833,48.3993125 C31.7698781,48.3880833 31.7216957,48.3704375 31.6076639,48.1971875 L31.5016626,48.0399792 L31.5916031,47.5988333 C31.7216957,46.9635833 31.7843328,46.7726875 31.92888,46.6090625 C32.0043658,46.5208333 32.0798516,46.4727083 32.1457009,46.4662917 Z M29.4619404,46.9202708 L29.7012464,47.1592917 L29.7413984,47.6998958 C29.7622775,47.9950625 29.771914,48.269375 29.7558531,48.3030625 C29.7413984,48.3495833 29.6546701,48.3624167 29.3864546,48.3624167 L29.0379352,48.3624167 C28.8516298,48.1586875 28.7938109,47.9100417 28.715113,47.653375 C28.5320198,46.8817708 28.5320198,46.5304583 28.7215373,46.4839375 C29.0315108,46.5031875 29.2354831,46.7277708 29.4619404,46.9202708 Z M38.7772072,46.5497083 C39.1562422,46.6507708 39.0807564,47.2523333 39.0791504,47.68225 C39.0502409,48.3784583 39.0229375,48.5228333 38.932997,48.6126667 C38.7772072,48.7682708 38.3435655,48.6816458 38.133169,48.4506458 C38.0641075,48.3672292 38.0576832,48.3415625 38.1122899,48.0030833 C38.174927,47.5908125 38.2552311,47.3341458 38.433506,46.9812292 C38.5635985,46.7277708 38.6856606,46.5689583 38.7772072,46.5497083 Z M30.2232226,46.5817917 C30.2441016,46.5801875 30.2778293,46.5817917 30.3099509,46.585 C30.550863,46.60425 30.7757143,46.7614583 30.9748682,47.0502083 L31.1354763,47.2860208 C31.149931,47.672625 31.1354763,48.0800833 31.0664148,48.4394167 C31.0246567,48.4602708 30.8512,48.4923542 30.6809555,48.5083958 C30.3854367,48.5356667 30.3581333,48.52925 30.2553442,48.4394167 C30.112403,48.3175 30.072251,48.0913125 30.0369172,47.3405625 C30.0160382,46.7277708 30.0304929,46.5914167 30.2232226,46.5817917 Z M33.8674192,46.710125 C34.1259981,46.7646667 34.2898184,46.902625 34.362092,47.1288125 C34.4199109,47.3229167 34.4552446,48.4089375 34.3990318,48.4843333 C34.3797589,48.5164167 34.2576967,48.5565208 34.1179677,48.5741667 C33.5975977,48.6399375 33.1382586,48.5902083 33.0932884,48.4666875 C33.0354695,48.3255208 33.4225349,46.9266875 33.5654761,46.7534375 C33.6265071,46.6186875 33.7742665,46.7229583 33.8674192,46.710125 Z M37.236976,46.71975 C37.3510078,46.7085208 37.4730699,46.8176042 37.5919198,47.0502083 C37.6882847,47.2443125 37.7027394,47.3116875 37.7027394,47.7464167 C37.7027394,48.0929167 37.6818603,48.2421042 37.6449205,48.2741875 C37.6127989,48.2998542 37.4827064,48.346375 37.3445834,48.3816667 C37.1036714,48.4442292 37.0506707,48.4506458 36.9751849,48.4249792 L36.6138168,48.3592083 L36.6411202,48.14425 C36.6668175,47.8635208 36.8515167,47.2411042 36.9816092,46.9716042 C37.0587011,46.8111875 37.1470355,46.7309792 37.236976,46.71975 Z M35.6662293,46.7245625 C35.7417151,46.7213542 35.7770489,46.739 35.8252313,46.7919375 C35.939263,46.9266875 36.0838103,47.3245208 36.1753568,47.749625 C36.297419,48.3479792 36.297419,48.346375 36.0356278,48.4249792 C35.9215961,48.4602708 35.6806841,48.4971667 35.5088334,48.5067917 C34.941887,48.5356667 34.8985229,48.5019792 34.9675843,48.0014792 C35.0221911,47.5555208 35.2422241,46.8528958 35.3369828,46.8015625 C35.439772,46.7470208 35.5586219,46.748625 35.6662293,46.7245625 Z M6.76802316,48.9848333 C6.77284141,48.9832292 6.77926573,48.9848333 6.77926573,48.9848333 C6.79372045,49.2976458 6.79372045,49.6136667 6.80014477,49.9280833 C6.00513493,49.867125 5.42052164,49.6778333 5.42052164,49.4548542 C5.42052164,49.2350833 5.98425589,49.0473958 6.76802316,48.9848333 Z M8.15728278,49.0121042 C8.80132106,49.0923125 9.24620535,49.26075 9.23817495,49.4548542 C9.23817495,49.6505625 8.80774538,49.8173958 8.16852535,49.896 C8.16210102,49.6024375 8.16210102,49.3072708 8.15728278,49.0121042 Z M38.2327459,49.867125 C38.2873527,49.8623125 38.3114439,49.8575 38.3949601,49.8655208 C38.7290248,49.8992083 38.7772072,49.9200625 38.7772072,50.0323542 C38.7772072,50.1799375 38.5234465,50.6242917 38.3515959,50.7782917 C38.2712919,50.8552917 38.1604723,50.9194583 38.1219264,50.9194583 C37.9291967,50.9194583 37.8167711,50.5136042 37.9067116,50.1398333 C37.9613183,49.9377083 38.0608953,49.8751458 38.2327459,49.867125 Z M37.0201552,50.0002708 C37.1695207,49.9874375 37.3140679,50.0275417 37.4586152,50.0467917 C37.4168571,50.4686875 37.2273396,50.8135833 36.8756079,51.0429792 C36.7888796,51.0429792 36.7455154,50.87775 36.7455154,50.5168125 C36.7455154,50.0868958 36.7680005,50.0050833 37.0201552,50.0002708 Z M35.6903205,50.155875 C36.0002941,50.155875 36.2733278,50.1703125 36.2861764,50.1879583 C36.3439953,50.2425 36.1769629,50.656375 35.9312326,51.0766667 C35.7208361,51.4504375 35.6903205,51.4777083 35.560228,51.4873333 C35.0494944,51.4295833 35.0639491,50.8312292 34.9852512,50.4205625 C34.9852512,50.1767292 35.0398579,50.155875 35.6903205,50.155875 Z M30.8576244,50.2023958 C31.2125681,50.2088125 31.3506911,50.26175 31.3506911,50.3981042 C31.3506911,50.5713542 31.2189925,50.91625 31.1435067,50.9595625 C31.029475,51.022125 31.0198385,51.0189167 30.7949872,50.7847083 C30.4400434,50.386875 30.3998914,50.3130833 30.8576244,50.2023958 Z M32.566494,50.2200417 C32.5729183,50.2296667 32.6419798,50.3547917 32.7110412,50.4959583 C32.8620128,50.7895208 32.8732554,50.9178542 32.765648,51.0157083 C32.5118873,51.1600833 32.4588866,51.0782708 32.2292171,50.9322917 C31.9626077,50.6804375 31.7522112,50.3419583 31.8212726,50.271375 C32.0589726,50.1863542 32.3207637,50.2184375 32.566494,50.2200417 Z M33.24426,50.2280625 L33.8786618,50.2392917 C34.1259981,50.2392917 34.3396068,50.252125 34.3508494,50.271375 C34.3942136,50.309875 34.2544846,51.1344167 34.1789988,51.3205 C34.0922705,51.5290417 33.7887212,51.5306458 33.6313254,51.2836042 C33.4064741,50.9290833 33.2587147,50.6307083 33.2538964,50.425375 L33.24426,50.2280625 Z" id="Shape"></path>
        </g>
    </g>
</svg>