<?xml version="1.0" encoding="UTF-8" standalone="no"?>
<!-- Created with Inkscape (http://www.inkscape.org/) -->

<svg
   xmlns:dc="http://purl.org/dc/elements/1.1/"
   xmlns:cc="http://creativecommons.org/ns#"
   xmlns:rdf="http://www.w3.org/1999/02/22-rdf-syntax-ns#"
   xmlns:svg="http://www.w3.org/2000/svg"
   xmlns="http://www.w3.org/2000/svg"
   xmlns:xlink="http://www.w3.org/1999/xlink"
   xmlns:sodipodi="http://sodipodi.sourceforge.net/DTD/sodipodi-0.dtd"
   xmlns:inkscape="http://www.inkscape.org/namespaces/inkscape"
   width="123.07125mm"
   height="157.10925mm"
   viewBox="0 0 123.07125 157.10925"
   version="1.1"
   id="svg8"
   inkscape:version="0.92.3 (2405546, 2018-03-11)"
   sodipodi:docname="flag.svg">
  <defs
     id="defs2">
    <linearGradient
       inkscape:collect="always"
       id="linearGradient1201">
      <stop
         style="stop-color:#050505;stop-opacity:1"
         offset="0"
         id="stop1197" />
      <stop
         style="stop-color:#5e5e5e;stop-opacity:0.97647059"
         offset="1"
         id="stop1199" />
    </linearGradient>
    <linearGradient
       inkscape:collect="always"
       id="linearGradient996">
      <stop
         style="stop-color:#090b0c;stop-opacity:0.93725491"
         offset="0"
         id="stop992" />
      <stop
         style="stop-color:#3d464d;stop-opacity:1"
         offset="1"
         id="stop994" />
    </linearGradient>
    <linearGradient
       inkscape:collect="always"
       xlink:href="#linearGradient996"
       id="linearGradient998"
       x1="406.04092"
       y1="107.35045"
       x2="396.30801"
       y2="129.93452"
       gradientUnits="userSpaceOnUse"
       spreadMethod="reflect" />
    <filter
       inkscape:collect="always"
       style="color-interpolation-filters:sRGB"
       id="filter1016"
       x="-0.063742287"
       width="1.1274846"
       y="-0.025083162"
       height="1.0501662">
      <feGaussianBlur
         inkscape:collect="always"
         stdDeviation="0.61674131"
         id="feGaussianBlur1018" />
    </filter>
    <filter
       inkscape:collect="always"
       style="color-interpolation-filters:sRGB"
       id="filter1032"
       x="-0.018183041"
       width="1.0363661"
       y="-0.035289511"
       height="1.0705791">
      <feGaussianBlur
         inkscape:collect="always"
         stdDeviation="0.46244498"
         id="feGaussianBlur1034" />
    </filter>
    <filter
       inkscape:collect="always"
       style="color-interpolation-filters:sRGB"
       id="filter1048"
       x="-0.026203383"
       width="1.0524068"
       y="-0.057495903"
       height="1.1149918">
      <feGaussianBlur
         inkscape:collect="always"
         stdDeviation="0.79869333"
         id="feGaussianBlur1050" />
    </filter>
    <filter
       inkscape:collect="always"
       style="color-interpolation-filters:sRGB"
       id="filter1068"
       x="-0.030003525"
       width="1.0600071"
       y="-0.11994361"
       height="1.2398872">
      <feGaussianBlur
         inkscape:collect="always"
         stdDeviation="1.1769397"
         id="feGaussianBlur1070" />
    </filter>
    <filter
       inkscape:collect="always"
       style="color-interpolation-filters:sRGB"
       id="filter1108"
       x="-0.043106396"
       width="1.0862128"
       y="-0.098668762"
       height="1.1973375">
      <feGaussianBlur
         inkscape:collect="always"
         stdDeviation="0.17878811"
         id="feGaussianBlur1110" />
    </filter>
    <linearGradient
       inkscape:collect="always"
       xlink:href="#linearGradient1201"
       id="linearGradient1203"
       x1="335.98001"
       y1="185.10086"
       x2="336.99255"
       y2="184.83006"
       gradientUnits="userSpaceOnUse"
       spreadMethod="reflect" />
  </defs>
  <sodipodi:namedview
     id="base"
     pagecolor="#ffffff"
     bordercolor="#666666"
     borderopacity="1.0"
     inkscape:pageopacity="0.0"
     inkscape:pageshadow="2"
     inkscape:zoom="1.4045014"
     inkscape:cx="8.8768317"
     inkscape:cy="340.11466"
     inkscape:document-units="mm"
     inkscape:current-layer="svg8"
     showgrid="false"
     fit-margin-top="0"
     fit-margin-left="0"
     fit-margin-right="0"
     fit-margin-bottom="0" />
  <metadata
     id="metadata5">
    <rdf:RDF>
      <cc:Work
         rdf:about="">
        <dc:format>image/svg+xml</dc:format>
        <dc:type
           rdf:resource="http://purl.org/dc/dcmitype/StillImage" />
        <dc:title />
      </cc:Work>
    </rdf:RDF>
  </metadata>
  <path
     style="fill:url(#linearGradient998);fill-opacity:1;fill-rule:evenodd;stroke:#000000;stroke-width:0.26458332px;stroke-linecap:butt;stroke-linejoin:miter;stroke-opacity:1"
     d="m 2.82469,8.189093 c 16.90891,0.55543 33.68329,0.44144 50.585,-0.59024 33.79948,-2.06311 48.59559,-7.929279 58.02566,-3.378269 -2.65938,8.439369 -2.19634,14.872339 -0.64106,21.036809 1.95287,7.74036 8.46262,14.63217 9.84048,24.96634 0.23556,1.7667 0.21499,3.29086 -2.34964,6.00706 -18.68131,-1.48966 -31.35513,6.39277 -44.7941,7.84994 -19.29029,2.09163 -34.01766,2.62706 -50.37481,15.74945 C 22.06611,56.859173 19.66984,33.025663 2.82469,8.189093 Z"
     id="path980"
     inkscape:connector-curvature="0"
     sodipodi:nodetypes="cscsscscc" />
  <path
     sodipodi:nodetypes="cc"
     inkscape:connector-curvature="0"
     id="path1205"
     d="m 2.82465,8.189223 c 14.31463,19.30731 18.46924,44.76788 20.29156,71.64096"
     style="fill:none;fill-rule:evenodd;stroke:#808080;stroke-width:1;stroke-linecap:butt;stroke-linejoin:miter;stroke-miterlimit:4;stroke-dasharray:none;stroke-opacity:1" />
  <path
     style="opacity:0.8;fill:#ffffff;stroke:none;stroke-width:5.51215267"
     inkscape:connector-curvature="0"
     d="m 69.83413,16.008523 c -0.67408,0.66782 -0.64678,0.59125 -1.23399,0.89019 -1.34636,0.68585 -2.76308,0.63555 -4.41423,0.74543 -0.49898,0.0191 -0.99002,0.0606 -1.46424,0.12912 -2.39459,0.34564 -4.30087,1.35765 -4.33695,3.38311 -0.63277,0.53924 -1.19246,1.16075 -1.74577,1.7821 -1.18586,1.30219 -1.98763,2.79572 -2.41071,4.5136 -0.546,2.52518 0.78037,4.94557 1.64069,7.29085 0.20305,0.5487 0.40599,1.07007 0.50053,1.26902 0.1337,0.27995 0.32755,0.5371 0.52886,0.76417 0.0378,7.5e-4 0.17826,-0.32799 0.2008,-0.46739 0.0329,-0.20298 -0.0291,-0.51146 -0.14945,-0.76689 -0.26858,-0.57499 -0.50933,-1.03832 -0.56593,-1.28084 -0.1049,-0.45572 -0.0911,-0.89322 0.0387,-1.12854 0.0461,-0.0835 0.24993,0.28006 0.24012,0.42802 -0.0112,0.17791 0.0101,0.47651 0.0473,0.6101 0.11813,0.45373 0.27227,0.935 0.43188,1.35186 0.20513,0.53793 0.31423,0.88677 0.31917,1.02766 0.003,0.10234 -0.025,0.21064 -0.14964,0.54818 -0.10791,0.2956 -0.14998,0.52811 -0.12802,0.72439 0.0204,0.19164 0.16141,0.65721 0.23495,0.76516 0.10937,0.16937 0.37563,0.32463 0.58687,0.34093 0.20748,0.0451 0.33239,0.18468 0.46297,0.34277 0.32505,0.42804 0.61263,0.96556 0.94946,1.79018 0.16284,0.39463 0.30317,0.74762 0.36125,0.93518 -1.49807,0.22766 -3.41665,0.51939 -5.16457,0.78397 -0.58668,0.0985 -1.69867,-0.0181 -2.68467,0.0652 -0.41265,-1.51006 -1.39748,-3.18785 -2.56133,-3.11789 -0.79451,0.0471 -1.39003,0.44382 -1.71872,1.76753 l 0.0274,0.0642 c 0.27561,-0.32098 0.47,-1.2043 1.71148,-1.33347 0.95342,-0.1001 1.58731,1.65015 1.87264,2.71754 -0.56838,0.12957 -1.0269,0.38161 -1.20408,0.86474 l -0.006,7.8e-4 c 1.1e-4,6.4e-4 3.6e-4,0.002 0.003,0.004 -0.002,0.002 -10e-4,0.003 -10e-4,0.004 l 0.006,-7.7e-4 c 0.34445,0.41544 0.88369,0.51489 1.4869,0.45979 2.40589,11.26491 13.26389,11.12137 16.16042,10.68288 10.80587,-1.63577 13.28179,-9.58358 13.33294,-12.59076 0.48668,1.20433 -0.0704,2.91673 -0.0636,4.11725 1.81023,-2.99179 0.9472,-5.47429 0.0767,-7.97096 0.41981,0.36138 0.93419,0.54667 1.54502,0.30855 -0.50727,-0.23548 -1.08437,0.0709 -1.68008,-1.15648 -0.25894,-0.52976 -0.47146,-0.92414 -0.67138,-1.25199 -0.49713,-1.07802 -1.11024,-2.08696 -1.81521,-3.05381 -0.63953,-1.06771 -0.48033,-1.8467 -0.69656,-2.81352 1.25201,2.49363 1.86837,3.11416 2.83765,3.24831 -2.81271,-2.45213 -2.78903,-6.9118 -4.78408,-10.58702 0.65422,0.25988 1.34859,0.26261 1.99234,-0.27342 -0.73133,-0.0937 -1.33259,0.53733 -2.59268,-0.78572 -1.13564,-1.52057 -2.57334,-2.55274 -4.24625,-3.40206 -0.88659,-0.40016 -1.83031,-0.61624 -2.77424,-0.80655 0.86253,-0.36392 1.72765,-1.32382 1.66764,-1.93363 z m 0.0281,8.93447 c 1.26645,0.25575 2.87075,1.71259 3.14371,3.33876 l 0.0121,0.0674 0.004,0.0237 c 0.35892,2.21031 -0.429,3.54724 -0.12654,5.00963 0.36039,1.72159 1.20869,2.21287 1.40727,2.47896 -0.44187,-1.02843 -0.82794,-2.34777 -0.68232,-3.46109 0.18693,-1.43184 0.41941,-2.62915 0.19846,-3.69505 -0.06,-0.24843 -0.33244,-1.17051 -0.47707,-1.57517 1.60257,1.65508 0.52761,4.57742 1.28565,6.26861 1.3186,2.94629 4.86355,2.80722 4.92285,9.13674 0.0512,5.56457 -5.45836,10.62771 -11.85385,11.59588 -4.74124,0.71771 -13.42434,-0.67436 -15.48708,-9.96233 0.95146,-0.21488 1.93994,-0.64137 2.52294,-0.71995 1.75728,-0.26602 3.76438,-0.56917 5.27689,-0.79666 0.51212,1.24394 0.78016,1.52206 2.00974,2.21635 1.36635,0.76534 1.66613,0.83828 3.44208,0.58714 1.77686,-0.2504 2.23514,-0.71179 3.666,-2.60715 0.29393,-0.49356 0.35313,-1.09083 0.43794,-1.65654 1.76688,-0.28432 3.05195,-0.51104 4.31098,-0.76287 1.28256,-0.25452 1.47558,-0.22336 3.52083,-0.7543 -2.12166,0.0999 -2.29383,0.18628 -3.59736,0.32245 -1.24604,0.13074 -2.50335,0.28802 -4.19865,0.52858 0.0286,-0.66183 0.12062,-1.31797 0.22713,-1.96911 0.069,-0.38461 0.16275,-0.76342 0.26087,-1.14122 l 0.16583,-0.0816 c 0.31726,-0.17197 0.57108,-0.47595 0.62853,-0.8436 0.0717,-0.48646 -0.12995,-0.99032 -0.49425,-1.32389 -0.12735,-0.12639 -0.28664,-0.28817 -0.35309,-0.36021 -0.20101,-0.22549 -0.2295,-0.36361 -0.26101,-1.31011 -0.0259,-0.7928 -0.0854,-1.20069 -0.23239,-1.58244 -0.0555,-0.22257 -0.13899,-0.68476 -0.16809,-0.80831 0.0651,0.0241 0.24613,0.29914 0.44712,0.67835 0.20053,0.3809 0.23633,0.46077 0.3264,0.79724 0.10133,0.38221 0.007,0.69089 -0.008,1.28649 -0.006,0.30681 -0.01,0.5914 -0.003,0.62901 0.006,0.0399 0.0502,0.12036 0.0916,0.1817 0.0955,0.13683 0.26256,0.324 0.28674,0.32035 0.3418,-0.5354 0.48843,-1.15477 0.60624,-1.7786 0.11573,-0.70321 0.0588,-1.42211 0.10078,-2.13427 0.0264,-0.61888 0.0732,-1.2416 0.0119,-1.86325 -0.11657,-1.2137 -0.32275,-2.05164 -0.80792,-3.26103 -0.11311,-0.2726 -0.39123,-0.78338 -0.56342,-1.01808 z m -3.13559,6.54033 c 0.45537,-0.0754 0.91719,-0.0874 1.36922,-0.0278 0.62433,0.13648 0.79919,0.64839 1.01119,1.2207 0.12667,0.36713 0.17239,0.63785 0.18246,1.09022 0.0661,0.64832 -0.0997,1.18283 -0.59186,1.61547 -0.80823,0.28171 -1.67515,0.56665 -2.48216,0.11824 -0.74045,-0.73292 -1.28296,-1.71877 -1.32615,-2.75361 0.0132,-0.42927 0.16728,-0.67478 0.54075,-0.86411 0.40503,-0.18766 0.84489,-0.32344 1.29622,-0.39902 z m -6.91838,1.12375 c 0.42609,-0.0689 0.86571,-0.0884 1.12987,0.0278 1.14098,0.53789 1.01362,1.71363 0.78616,2.76291 -0.3567,1.3827 -1.63242,1.52672 -2.86244,1.70247 -0.71509,-0.097 -0.87669,-0.64714 -1.081,-1.23026 -0.18667,-0.56488 -0.47585,-1.15688 -0.42895,-1.76032 0.21912,-0.99248 1.60622,-1.31272 2.45636,-1.50257 z m 15.55931,-2.18956 c 0.44702,2.48591 1.08569,3.6439 2.24679,5.27647 -0.67005,-0.88282 -1.48151,-1.32012 -1.95067,-2.42567 -0.90091,-2.13554 -0.3303,-2.09477 -0.29612,-2.8508 z m -12.01999,3.66897 c 0.15841,0.11609 0.25649,0.29436 0.39929,0.42645 0.0624,-0.16798 0.12723,-0.33554 0.2184,-0.49018 0.0605,-0.006 0.15483,0.10044 0.25894,0.30364 0.42377,0.74545 0.63294,1.60469 1.13556,2.30683 0.44135,0.49653 0.0282,0.88742 -0.48306,0.99057 -0.37623,0.0562 -0.58113,-0.17758 -0.84724,-0.39967 -0.0272,0.17555 -0.11681,0.29936 -0.22636,0.43183 -0.28011,0.32729 -0.94363,0.32233 -1.12104,-0.0999 -0.0154,-0.85557 0.27232,-1.68701 0.40815,-2.53006 0.0864,-0.31324 0.0482,-0.53764 0.25736,-0.93951 z m -4.08375,4.95194 c 0.16621,-0.025 0.67784,0.21688 0.80181,0.3784 0.0847,0.10714 0.31118,0.53959 0.34091,0.64857 0.0396,0.1292 0.0552,0.44715 0.0297,0.53793 -0.0191,0.065 -0.04,0.0769 -0.0814,0.043 -0.0346,-0.0287 -0.54761,-0.70738 -0.87826,-1.15793 -0.26112,-0.36126 -0.29545,-0.43732 -0.21271,-0.44985 z m 9.58027,-1.19994 c 0.006,-3.2e-4 0.0161,7.7e-4 0.0253,0.002 0.0552,0.0133 0.0518,0.20218 -0.0237,0.89767 -10e-4,0.20622 -0.0622,0.37799 -0.16901,0.52937 -0.0428,0.006 -0.0713,-0.0407 -0.18774,-0.30877 -0.0989,-0.22888 -0.14272,-0.43953 -0.13656,-0.63522 0.0267,-0.24789 0.29147,-0.36282 0.49178,-0.4849 z m -0.89983,1.62744 c 0.0157,-0.004 0.033,0.001 0.0561,0.0139 0.079,0.0388 0.11227,0.16732 0.11059,0.42913 10e-4,0.33621 -0.004,0.37422 -0.0833,0.42064 -0.0338,0.0221 -0.0972,0.0435 -0.14094,0.0503 -0.0812,-0.002 -0.11298,-0.0633 -0.1116,-0.16341 -0.0361,-0.20376 -0.008,-0.38987 0.0891,-0.61945 0.0367,-0.0859 0.0567,-0.12366 0.08,-0.13123 z m -6.73385,1.03472 c 0.0538,-0.008 0.23699,0.0847 0.31152,0.15727 0.0825,0.0761 0.24985,0.57783 0.22258,0.67289 -0.0295,0.11872 -0.27964,0.0994 -0.37054,-0.0291 -0.0552,-0.0769 -0.23074,-0.51069 -0.24962,-0.61728 -0.0174,-0.0986 0.0182,-0.17337 0.086,-0.18367 z m 6.18154,-0.79653 c 0.0822,0.084 0.12079,0.20223 0.1537,0.46926 l 0.0295,0.24342 -0.0565,0.0793 c -0.0346,0.0446 -0.0964,0.10234 -0.13511,0.12835 -0.085,0.0579 -0.15539,0.0725 -0.1749,0.0394 -0.024,-0.0446 -0.0504,-0.34806 -0.0395,-0.45356 0.0152,-0.10925 0.11059,-0.44325 0.14879,-0.51666 0.0119,-0.0637 0.0519,0.007 0.074,0.0112 z m -3.92049,0.57902 c 0.14763,0.0152 0.23271,0.13296 0.33049,0.23725 l 0.0705,0.0955 -0.028,0.26738 c -0.0141,0.14699 -0.0329,0.28022 -0.0428,0.29622 -0.0112,0.0177 -0.0622,0.0335 -0.13954,0.0445 -0.20713,0.0249 -0.23194,0.0206 -0.30234,-0.0556 l -0.0652,-0.069 0.004,-0.22216 c 0.007,-0.32001 0.0221,-0.41781 0.0781,-0.5084 0.029,-0.0487 0.0617,-0.0777 0.093,-0.0857 z m -1.26461,0.41916 0.13697,0.0993 0.0662,0.26115 c 0.036,0.14263 0.0642,0.27601 0.0586,0.29378 -0.002,0.0237 -0.044,0.0364 -0.17434,0.0561 l -0.16935,0.0257 c -0.10813,-0.0857 -0.15777,-0.20306 -0.21824,-0.32268 -0.15571,-0.36353 -0.18613,-0.53517 -0.0982,-0.57184 0.15227,-0.0133 0.2708,0.0813 0.3975,0.15872 z m 4.49378,-0.86615 c 0.19289,0.0214 0.20831,0.32096 0.24475,0.53111 0.0463,0.34229 0.0454,0.41482 0.01,0.46533 -0.0622,0.0875 -0.28039,0.0771 -0.40261,-0.0201 -0.0408,-0.0358 -0.0462,-0.0476 -0.0493,-0.2171 -0.004,-0.20603 0.0119,-0.33734 0.0675,-0.52287 0.0413,-0.13338 0.0868,-0.21997 0.12963,-0.2361 z m -4.15321,0.64481 c 0.0112,-0.003 0.0265,-0.004 0.0424,-0.004 0.11871,-0.008 0.24157,0.052 0.36333,0.17838 l 0.0983,0.10334 c 0.0397,0.18793 0.0689,0.38795 0.0662,0.56859 -0.0185,0.0136 -0.1001,0.0416 -0.18129,0.062 -0.14123,0.0349 -0.15499,0.0343 -0.21277,-0.002 -0.0799,-0.049 -0.11907,-0.15662 -0.20125,-0.52081 -0.0636,-0.2978 -0.0681,-0.36553 0.0248,-0.38441 z m 1.78165,-0.20537 c 0.13036,0.007 0.22189,0.063 0.27661,0.16819 0.0449,0.0906 0.15617,0.61858 0.13526,0.65958 -0.006,0.0172 -0.0624,0.0455 -0.12877,0.0646 -0.24713,0.0703 -0.47469,0.0795 -0.50714,0.0229 -0.0403,-0.0647 0.0268,-0.77662 0.081,-0.87179 0.018,-0.0703 0.0988,-0.0303 0.14297,-0.0434 z m 1.63787,-0.2436 c 0.0542,-0.0146 0.12317,0.0306 0.20106,0.13536 0.0637,0.0878 0.0764,0.11959 0.11406,0.332 0.03,0.1693 0.0325,0.24377 0.0176,0.26209 -0.0134,0.015 -0.0725,0.0472 -0.13662,0.0747 -0.11167,0.0483 -0.13682,0.0554 -0.17572,0.0483 l -0.18127,-0.006 -0.004,-0.10702 c -0.0119,-0.13904 0.0241,-0.45671 0.0639,-0.59797 0.0237,-0.084 0.0596,-0.12973 0.10223,-0.14184 z m -0.76279,0.11763 c 0.0367,-0.006 0.055,-0.002 0.0831,0.0212 0.0671,0.0574 0.17174,0.24118 0.25304,0.44216 0.11103,0.28336 0.11092,0.28258 -0.01,0.34022 -0.0522,0.0257 -0.1662,0.0613 -0.24885,0.0788 -0.27295,0.0558 -0.29689,0.0429 -0.30671,-0.20707 -0.0119,-0.22191 0.034,-0.58137 0.0757,-0.61341 0.0452,-0.0343 0.10312,-0.0422 0.15329,-0.0619 z m -13.84458,3.22975 c 0.002,-9.6e-4 0.006,-7.8e-4 0.006,-7.8e-4 0.0334,0.15187 0.0608,0.30628 0.0922,0.45925 -0.39154,0.0288 -0.69196,-0.0212 -0.71127,-0.12975 -0.0191,-0.10736 0.23861,-0.24054 0.61401,-0.32875 z m 0.67733,-0.0889 c 0.31987,-0.008 0.55061,0.0414 0.5635,0.13679 0.017,0.0955 -0.17773,0.2088 -0.4815,0.2942 -0.0286,-0.14295 -0.0541,-0.28716 -0.0828,-0.43088 z m 14.68629,-1.79427 c 0.026,-0.006 0.0375,-0.01 0.0788,-0.0125 0.1652,-0.008 0.19043,-0.001 0.20016,0.0533 0.0127,0.072 -0.0721,0.30787 -0.1422,0.39574 -0.0325,0.0435 -0.0808,0.083 -0.0993,0.0858 -0.0935,0.0143 -0.18341,-0.17585 -0.17211,-0.36508 0.0101,-0.10278 0.0519,-0.14065 0.13478,-0.15721 z m -0.57758,0.1543 c 0.0714,-0.0173 0.14515,-0.008 0.21704,-0.01 0.0162,0.20919 -0.0461,0.39163 -0.19699,0.52957 -0.0421,0.006 -0.0776,-0.0711 -0.1087,-0.24752 -0.0372,-0.21003 -0.0335,-0.25165 0.0886,-0.27256 z m -0.63267,0.17372 c 0.15062,-0.0228 0.28439,-0.0366 0.29228,-0.0281 0.0327,0.0224 -0.0127,0.23687 -0.0954,0.46031 -0.07,0.19808 -0.0824,0.21365 -0.1447,0.22792 -0.25314,0.0101 -0.29793,-0.28405 -0.37172,-0.47892 -0.0211,-0.11918 0.003,-0.13335 0.31964,-0.18117 z m -2.34394,0.37816 c 0.17302,-0.0229 0.24468,-0.007 0.25649,0.0594 0.0151,0.0846 -0.0191,0.26284 -0.052,0.28955 -0.05,0.0391 -0.0549,0.0379 -0.18446,-0.0598 -0.2069,-0.16826 -0.2328,-0.20137 -0.02,-0.28911 z m 0.83175,-0.11729 c 0.004,0.003 0.0484,0.0603 0.0943,0.1242 0.0988,0.13231 0.11526,0.19419 0.0716,0.2499 -0.11071,0.0894 -0.14362,0.0532 -0.26786,-0.001 -0.15135,-0.10345 -0.28287,-0.25332 -0.25542,-0.2929 0.10814,-0.059 0.2381,-0.0625 0.35763,-0.0798 z m 0.33005,-0.0456 0.30934,-0.0403 c 0.12017,-0.0182 0.22506,-0.0277 0.23219,-0.0192 0.0244,0.0155 0.0279,0.42874 0.007,0.52521 -0.024,0.10836 -0.17142,0.13136 -0.26928,0.0222 -0.13996,-0.15666 -0.23759,-0.29156 -0.2577,-0.39154 z"
     id="path1166" />
  <path
     inkscape:connector-curvature="0"
     style="fill:#000000;fill-opacity:0.2179931;fill-rule:evenodd;stroke:none;stroke-width:0.26458332px;stroke-linecap:butt;stroke-linejoin:miter;stroke-opacity:1;filter:url(#filter1068)"
     d="M 96.96877,2.824695 C 87.40763,3.701649 73.90669,6.347953 53.40969,7.599083 36.50798,8.630763 19.73357,8.744653 2.82466,8.189223 c 0.28757,0.42399 0.57035,0.84732 0.84956,1.27072 8.08109,6.60331 17.64015,12.14116 29.75271,15.83418 5.89973,1.79878 7.32441,1.83162 4.41007,-3.67471 -3.87528,-7.32193 6.12604,-5.1056 9.75547,-4.87774 10.9214,0.68566 22.55823,3.53811 31.80477,-0.0667 10.62421,-4.14185 4.65937,-4.49827 2.60604,-5.01158 -6.60905,-1.6522 7.24239,-5.18315 11.35901,-6.74843 1.9876,-0.755758 3.09534,-1.445357 3.60648,-2.090308 z"
     id="path982" />
  <path
     inkscape:connector-curvature="0"
     style="fill:#000000;fill-opacity:0.22145332;fill-rule:evenodd;stroke:none;stroke-width:0.26458332px;stroke-linecap:butt;stroke-linejoin:miter;stroke-opacity:1;filter:url(#filter1108)"
     d="m 100.8409,6.634803 c -0.39595,-0.022 -0.40847,0.24454 -0.0878,0.4563 2.9324,1.93669 5.98233,3.07486 9.12399,3.89123 0.14804,-1.05301 0.3483,-2.13707 0.6041,-3.25561 -3.14735,0.0672 -6.29219,-0.36904 -9.44697,-1.0635 -0.0724,-0.0159 -0.13671,-0.0253 -0.19328,-0.0284 z"
     id="path984" />
  <path
     style="fill:#000000;fill-opacity:0.20415225;fill-rule:evenodd;stroke:none;stroke-width:0.26458332px;stroke-linecap:butt;stroke-linejoin:miter;stroke-opacity:1;filter:url(#filter1048)"
     d="m 43.8164,21.118853 c 0.98338,2.20946 2.65019,4.39204 5.21455,6.00999 12.58,7.9372 33.55209,10.62197 60.60054,23.09418 7.46694,3.44305 6.04143,-5.04 5.8114,-7.55952 -0.79005,-8.65354 -4.87396,-9.94813 -9.5439,-11.1503 -8.45026,-2.17533 -30.31217,1.49141 -14.07961,-4.11049 7.68027,-2.65048 9.3529,-3.35171 -1.46466,-2.69308 -3.59958,0.21916 -8.3897,1.06475 -13.60529,1.00949 -10.10918,-0.10712 -19.37584,-3.69946 -30.85416,-7.34059 -4.63876,-1.4715 -3.55388,-0.57375 -2.07887,2.74032 z"
     id="path986"
     inkscape:connector-curvature="0"
     sodipodi:nodetypes="ssssssssss" />
  <path
     style="fill:#000000;fill-opacity:0.13148792;fill-rule:evenodd;stroke:none;stroke-width:0.26458332px;stroke-linecap:butt;stroke-linejoin:miter;stroke-opacity:1;filter:url(#filter1032)"
     d="m 50.56571,33.746743 c -10.29307,-2.04224 -19.32828,-2.58047 -6.68174,5.4122 2.92588,1.84917 16.10313,21.63487 16.53731,22.14997 5.3501,6.34719 25.81378,-0.8909 28.49761,-1.33635 5.78095,-2.60038 -10.20079,-6.23629 -15.30118,-9.35443 -6.75685,-4.13082 -1.53931,-6.26582 6.08038,-3.0736 l 9.08313,3.80532 c 16.24134,6.98747 10.48735,0.89418 -2.12402,-5.05969 -9.65489,-4.63364 -19.44737,-9.24107 -36.09149,-12.54342 z"
     id="path988"
     inkscape:connector-curvature="0"
     sodipodi:nodetypes="ssscssccs" />
  <path
     inkscape:connector-curvature="0"
     style="fill:#000000;fill-opacity:0.27681663;fill-rule:evenodd;stroke:none;stroke-width:0.26458332px;stroke-linecap:butt;stroke-linejoin:miter;stroke-opacity:1;filter:url(#filter1016)"
     d="m 10.2516,20.819463 c 10.1962,20.31694 11.99397,39.96051 12.86485,59.01087 1.79504,-1.44006 3.56955,-2.72067 5.33352,-3.87625 0.83048,-1.05068 1.06615,-1.84184 0.24753,-1.96577 -0.9967,-0.1509 -4.18615,-2.80316 0.047,-3.02359 2.01464,-0.1049 9.54947,0.85859 0,-4.29948 -1.44276,-0.7793 -11.44054,-5.62384 -1.36995,-4.72478 1.53393,0.13694 12.48285,3.07214 0.18862,-3.82715 -1.1674,-0.65513 -9.41416,-5.65439 -1.70067,-3.63803 3.50246,0.91557 3.18848,-4.49236 0.99219,-6.18928 -3.11562,-2.40722 1.52477,-3.52209 0.28371,-4.11034 -8.37843,-3.97134 1.15058,-6.02156 -6.42597,-10.82001 -2.86779,-1.81627 -9.15393,-8.95214 -5.81101,-8.36229 3.82876,0.67558 2.72331,-0.88716 -0.66146,-2.50423 -1.1267,-0.53829 -2.57226,-1.25442 -3.98839,-1.66967 z"
     id="path990" />
  <path
     inkscape:connector-curvature="0"
     id="path1193"
     d="M 2.82465,8.189223 A 1.0001,1.0001 0 0 0 1.85928,9.477233 L 43.63187,156.35031 a 1.0001,1.0001 0 1 0 1.92258,-0.54761 L 3.78185,8.929623 a 1.0001,1.0001 0 0 0 -0.9572,-0.7404 z"
     style="color:#000000;font-style:normal;font-variant:normal;font-weight:normal;font-stretch:normal;font-size:medium;line-height:normal;font-family:sans-serif;font-variant-ligatures:normal;font-variant-position:normal;font-variant-caps:normal;font-variant-numeric:normal;font-variant-alternates:normal;font-feature-settings:normal;text-indent:0;text-align:start;text-decoration:none;text-decoration-line:none;text-decoration-style:solid;text-decoration-color:#000000;letter-spacing:normal;word-spacing:normal;text-transform:none;writing-mode:lr-tb;direction:ltr;text-orientation:mixed;dominant-baseline:auto;baseline-shift:baseline;text-anchor:start;white-space:normal;shape-padding:0;clip-rule:nonzero;display:inline;overflow:visible;visibility:visible;opacity:1;isolation:auto;mix-blend-mode:normal;color-interpolation:sRGB;color-interpolation-filters:linearRGB;solid-color:#000000;solid-opacity:1;vector-effect:none;fill:url(#linearGradient1203);fill-opacity:1;fill-rule:evenodd;stroke:none;stroke-width:2;stroke-linecap:round;stroke-linejoin:round;stroke-miterlimit:4;stroke-dasharray:none;stroke-dashoffset:0;stroke-opacity:1;color-rendering:auto;image-rendering:auto;shape-rendering:auto;text-rendering:auto;enable-background:accumulate" />
</svg>
