<?xml version="1.0" encoding="UTF-8"?>
<svg version="1.1" viewBox="0 0 246.3 124.56" xmlns="http://www.w3.org/2000/svg" xmlns:cc="http://creativecommons.org/ns#" xmlns:dc="http://purl.org/dc/elements/1.1/" xmlns:rdf="http://www.w3.org/1999/02/22-rdf-syntax-ns#" xmlns:xlink="http://www.w3.org/1999/xlink">
  <defs>
    <linearGradient id="linearGradient1033">
      <stop stop-color="#c92a2a" offset="0"/>
      <stop stop-color="#fa5252" offset="1"/>
    </linearGradient>
    <linearGradient id="linearGradient1035" x1="212.93" x2="213.67" y1="92.22" y2="94.756" gradientUnits="userSpaceOnUse" spreadMethod="reflect" xlink:href="#linearGradient1033"/>
    <linearGradient id="linearGradient1043" x1="217.11" x2="217.21" y1="100.2" y2="102.31" gradientUnits="userSpaceOnUse" xlink:href="#linearGradient1033"/>
    <linearGradient id="linearGradient1051" x1="207.04" x2="207.1" y1="103.25" y2="105.03" gradientUnits="userSpaceOnUse" xlink:href="#linearGradient1033"/>
    <linearGradient id="linearGradient1059" x1="197.76" x2="197.91" y1="109.71" y2="111.95" gradientUnits="userSpaceOnUse" xlink:href="#linearGradient1033"/>
    <linearGradient id="linearGradient1069" x1="184.17" x2="184.26" y1="111.73" y2="113.4" gradientUnits="userSpaceOnUse" xlink:href="#linearGradient1033"/>
  </defs>
  <g transform="translate(22.422 -19.79)">
    <path d="m10.887 20.244c1.3143 0.60649 46.928 20.372 48.25 20.973 25.496 11.598 52.245 22.295 75.748 35.282 28.253 15.613 39.101 18.153 53.871 17.05 5.1905-0.38777 12.571-0.61959 17.789 2.6055 2.6894 1.662 8.5267-5.1427 11.105-4.7585 3.3642 0.50123 4.1436 3.1474 4.7881 5.4986 0.55929 2.0403-0.10308 3.8608-0.17962 5.3655 2.9243 4.3987 0.36401 13.394-11.015 12.828-1.4221 0.98629-2.795 1.9841-8.0612 2.0667-2.2404 3.3657-5.1282 4.8332-11.706 4.6244-2.8521 3.5875-4.8043 4.0186-8.7606 6.3139-8.1654 4.7373-20.33 8.2157-26.41 8.7737-9.6213 0.88278-19.43 0.59385-29.891-0.9867-11.973-3.0504-28.622-5.3398-37.095-2.1712-20.084 7.5107-29.922 10.251-39.517 10.135-17.436-0.21108-22.846-1.7539-28.347-32.712-3.4772-19.57-16.365-35.019-43.686-46.355" fill="none" stroke="currentColor"/>
    <path d="m189.52 98.166c2.2303-0.3757 6.8711-0.5415 9.16-0.54784 8.0817-0.02238 14.176 1.4467 17.008 2.8383 5.844-0.2009 6.566 1.8037 6.566 1.8037m-32.286-1.7655c2.2411 0.0942 4.0246-0.17282 6.3132-0.19262 21.237-0.18372 16.816 12.842 14.958 14.786m-40.801-9.0393c6.495 0.14455 8.8742-0.45529 13.695-0.54264 19.997-0.36235 19.584 9.1311 19.045 11.649m-42.34-7.0438c7.7589 1.6737 12.055-0.78042 16.875-0.9045 17.874-0.46013 9.2446 11.769 9.2446 11.769m-20.381 4.619c7.1354-1.5871 20.282-1.3316 20.381-4.619 1.3531 0.44705 2.7632 0.82694 4.5147 0.80411" fill="none" stroke="currentColor" stroke-width=".26458px"/>
    <g>
      <path d="m205.13 95.957c3.6732-2.4475 7.8276-4.3355 11.527-5.0832 0.64413-0.21576 0.49348 0.14875 0.42234 0.6361-0.40173 2.665-0.80477 4.0927-1.6849 4.5882-4.6299 2.6066-7.6593 2.1574-10.301 1.366-0.28928-0.55229-0.28632-1.292 0.0367-1.5072z" fill="url(#linearGradient1035)"/>
      <path d="m214.28 101.33c0.17961-1.5166 1.7367-1.0877 3.7206-1.1564 2.0169-0.0699 3.2975-0.4314 2.8091 1.324-0.56838 2.0427-1.6642 1.465-3.5776 1.6189-4.1021 0.33-3.1203-0.36622-2.9521-1.7864z" fill="url(#linearGradient1043)"/>
      <path d="m204.12 104.05c0.1625-1.3722 1.5713-0.98415 3.3663-1.0463 1.8248-0.0632 2.9835-0.39031 2.5416 1.1979-0.51425 1.8482-1.5058 1.3254-3.2369 1.4647-3.7114 0.29858-2.8232-0.33134-2.671-1.6163z" fill="url(#linearGradient1051)"/>
      <path d="m194.73 110.98c0.17317-1.714 1.6746-1.2293 3.5874-1.307 1.9447-0.0789 3.1795-0.48754 2.7086 1.4964-0.54804 2.3086-1.6047 1.6556-3.4495 1.8296-3.9553 0.37296-3.0086-0.41389-2.8465-2.019z" fill="url(#linearGradient1059)"/>
      <path d="m181.02 112.16c0.18369-2.0132 1.7763-1.4439 3.8054-1.5351 2.0629-0.0927 3.3727-0.57263 2.8732 1.7575-0.58134 2.7115-1.7022 1.9446-3.6592 2.1489-4.1956 0.43805-3.1915-0.48612-3.0194-2.3713z" fill="url(#linearGradient1069)"/>
    </g>
    <path d="m33.733 142.11 42.204-94.902" fill="none" stroke="#fcc419" stroke-width="11.873"/>
    <path d="m33.733 142.11 42.204-94.902" fill="none" stroke="#2f9e44" stroke-dasharray="11.8733, 11.8733" stroke-width="11.873"/>
  </g>
</svg>
