<?xml version="1.0" encoding="UTF-8" standalone="no"?>
<svg
   xmlns:dc="http://purl.org/dc/elements/1.1/"
   xmlns:cc="http://creativecommons.org/ns#"
   xmlns:rdf="http://www.w3.org/1999/02/22-rdf-syntax-ns#"
   xmlns:svg="http://www.w3.org/2000/svg"
   xmlns="http://www.w3.org/2000/svg"
   xmlns:xlink="http://www.w3.org/1999/xlink"
   xmlns:sodipodi="http://sodipodi.sourceforge.net/DTD/sodipodi-0.dtd"
   xmlns:inkscape="http://www.inkscape.org/namespaces/inkscape"
   class="blobs"
   viewBox="-400 0 512.55805 290.76514"
   version="1.1"
   id="svg1047"
   sodipodi:docname="share.svg"
   width="512.55804"
   height="290.76514"
   inkscape:version="0.92.5 (2060ec1f9f, 2020-04-08)">
  <metadata
     id="metadata1051">
    <rdf:RDF>
      <cc:Work
         rdf:about="">
        <dc:format>image/svg+xml</dc:format>
        <dc:type
           rdf:resource="http://purl.org/dc/dcmitype/StillImage" />
        <dc:title></dc:title>
      </cc:Work>
    </rdf:RDF>
  </metadata>
  <sodipodi:namedview
     pagecolor="#ffffff"
     bordercolor="#666666"
     borderopacity="1"
     objecttolerance="10"
     gridtolerance="10"
     guidetolerance="10"
     inkscape:pageopacity="0"
     inkscape:pageshadow="2"
     inkscape:window-width="3840"
     inkscape:window-height="2032"
     id="namedview1049"
     showgrid="false"
     fit-margin-top="0"
     fit-margin-left="0"
     fit-margin-right="0"
     fit-margin-bottom="0"
     inkscape:zoom="2.0810123"
     inkscape:cx="978.37738"
     inkscape:cy="128.43897"
     inkscape:window-x="0"
     inkscape:window-y="54"
     inkscape:window-maximized="1"
     inkscape:current-layer="svg1047" />
  <defs
     id="defs971">
    <clipPath
       id="blobs-clip">
      <path
         d="m 225,372.56815 c 27.7507,-4.37415 51.68668,-17.25487 78.62618,-25.22343 39.79336,-11.77066 98.73555,4.23687 117.48306,-32.78463 18.43181,-36.39808 -33.19804,-72.15436 -44.48903,-111.35978 -9.18186,-31.88194 7.30363,-72.03699 -15.31805,-96.30681 C 338.64673,82.58748 297.66814,95.358722 266.18893,84.723396 232.80351,73.444054 206.64101,40.256881 171.49109,42.765394 c -36.70538,2.61952 -69.73428,26.777217 -92.926056,55.347986 -22.837161,28.13391 -39.486382,65.1414 -33.947131,100.95159 5.263089,34.02486 47.097409,48.95988 61.941277,80.02514 14.42602,30.1908 -4.1757,75.10538 22.08975,95.83508 25.73985,20.31488 63.96022,2.74851 96.35107,-2.35704"
         transform="translate(-250,-170)"
         id="path957"
         inkscape:connector-curvature="0"
         style="fill:#ff0000;stroke:none" />
      <path
         d="m 225,399.08821 c 36.23859,8.2098 77.39968,15.05596 109.12919,-4.27988 31.83044,-19.39735 36.28965,-62.52524 54.16819,-95.23291 19.56639,-35.79549 63.08377,-65.93545 55.87703,-106.08794 C 436.92572,153.10123 382.09486,143.16226 354.73533,112.5837 328.01323,82.717564 321.88069,34.931527 286.12165,16.838761 248.92409,-1.9818514 202.1743,0.077785 163.59496,15.873643 126.43642,31.087772 99.071533,64.541716 81.47034,100.63084 c -15.335227,31.44304 -14.381224,67.82355 -9.162176,102.41539 4.233786,28.06153 23.692108,49.67313 35.968876,75.25936 11.98164,24.97116 16.08521,53.42422 35.33231,73.34073 22.27345,23.04813 50.13093,40.36004 81.39065,47.44189"
         transform="translate(400,50)"
         id="path959"
         inkscape:connector-curvature="0"
         style="fill:#ff0000;stroke:none" />
      <path
         d="m 185,340.7264 c 28.2092,-7.21545 36.59121,-45.19458 62.51893,-58.44505 30.66942,-15.67374 75.09405,1.56806 98.39883,-23.79267 22.94267,-24.96667 24.09259,-66.24731 14.12289,-98.65573 C 350.46696,128.71187 320.81882,109.13007 294.20178,90.376116 272.39567,75.011864 244.88981,74.080598 221.12851,61.957586 189.85926,46.004018 168.05196,5.1500798 133.0783,8.1709286 99.081404,11.10741 69.962729,43.58425 59.148029,75.948646 48.805741,106.89929 74.900346,137.40662 79.078995,169.77086 c 2.763491,21.40363 -2.298201,42.0161 0.37256,63.4315 3.7589,30.14061 -2.845539,65.67733 18.432135,87.35326 21.31205,21.71096 57.64205,27.70982 87.11631,20.17078"
         transform="translate(-140,210)"
         id="path961"
         inkscape:connector-curvature="0"
         style="fill:#ff0000;stroke:none" />
    </clipPath>
    <clipPath
       id="clip-avatar">
      <circle
         cx="580"
         cy="200"
         r="70"
         id="circle964" />
    </clipPath>
    <clipPath
       id="clip-patron">
      <circle
         cx="40"
         cy="350"
         r="60"
         id="circle967" />
    </clipPath>
    <path
       id="logo"
       transform="matrix(5.52,0,0,5.52,200,125)"
       d="M 26.241298,0 C 25.462753,0.55368189 25.502816,0.48263055 24.873902,0.68824441 23.431294,1.1599219 22.047987,0.90103181 20.406198,0.76379717 19.91263,0.70865386 19.422803,0.67652787 18.944693,0.67350425 16.531502,0.65687433 14.481902,1.3647647 14.093745,3.3410457 13.37794,3.7749279 12.719546,4.2998854 12.067578,4.8259843 10.675616,5.9242961 9.6275528,7.2667616 8.9125039,8.8851288 7.936252,11.274508 8.8180157,13.839386 9.2553071,16.261266 c 0.103937,0.566925 0.2124094,1.107009 0.2706142,1.315635 0.082772,0.294047 0.2282834,0.574099 0.3866078,0.826193 0.037795,0.0072 0.2324409,-0.294425 0.2789289,-0.427468 0.06765,-0.19389 0.06047,-0.50493 -0.01512,-0.772524 -0.163653,-0.602438 -0.3197479,-1.091498 -0.3329762,-1.337163 -0.022677,-0.461091 0.066142,-0.887414 0.2347082,-1.098312 0.05972,-0.07483 0.196914,0.311055 0.161386,0.454292 -0.04158,0.172346 -0.07332,0.46789 -0.05972,0.603953 0.0378,0.461477 0.104693,0.955079 0.188976,1.386686 0.107717,0.556713 0.154205,0.914256 0.134551,1.052576 -0.01512,0.100838 -0.06161,0.202583 -0.242645,0.514386 -0.157229,0.27326 -0.239244,0.494358 -0.251717,0.689756 -0.015118,0.190488 0.04384,0.66669 0.09751,0.783481 0.07786,0.181795 0.312567,0.37304 0.517379,0.420269 0.19578,0.07483 0.294426,0.229795 0.394961,0.404023 0.244913,0.466761 0.43389,1.035315 0.621354,1.892119 0.09147,0.410067 0.167811,0.776296 0.192378,0.968666 -1.511811,0.0014 -3.4480249,0.0029 -5.2118926,0.0029 C 6.0268346,23.950534 4.9546205,23.671226 3.971074,23.606597 3.8285858,22.068363 3.1528441,20.280563 1.9971024,20.17663 1.207937,20.105197 0.55370079,20.405291 0,21.651753 l 0.01511811,0.06686 c 0.32692913,-0.27326 0.67162205,-1.108895 1.91429289,-1.051442 0.9543307,0.04343 1.272189,1.849776 1.3666772,2.93636 -0.5809134,0.04271 -1.0756536,0.221481 -1.3337953,0.667835 h -0.00756 c 0,7.56e-4 0,0.0029 0.00302,0.0042 -0.00302,0.0014 -0.00302,0.0029 -0.00302,0.0042 h 0.00756 c 0.2660788,0.457234 0.7789606,0.63449 1.3810394,0.670018 0.4025197,11.377659 11.0977507,12.845223 14.0203847,12.845223 10.903748,0 14.720995,-7.40925 15.295105,-10.344 0.268347,1.250623 -0.577134,2.84329 -0.779716,4.019078 2.300182,-2.659226 1.884434,-5.215654 1.463811,-7.787202 0.349606,0.415751 0.822765,0.673133 1.464529,0.530641 -0.457323,-0.305763 -1.077922,-0.09143 -1.449411,-1.38026 -0.162142,-0.55671 -0.302363,-0.974075 -0.441827,-1.324808 -0.300851,-1.128166 -0.727559,-2.20608 -1.252158,-3.25638 -0.442167,-1.139509 -0.150047,-1.878017 -0.194267,-2.85577 0.79593,2.624848 1.293694,3.32329 2.222664,3.598054 C 31.355641,16.178657 32.155351,11.818908 30.8352,7.927578 31.432743,8.2786961 32.114532,8.3845153 32.84058,7.9551685 32.138343,7.7553827 31.437279,8.2837228 30.429657,6.8025638 29.578507,5.146783 28.345285,3.9237506 26.849386,2.8450961 26.047748,2.322395 25.158085,1.9712806 24.263471,1.6451187 25.174715,1.4168353 26.191748,0.60576 26.238992,2.9480315e-4 Z m -1.528026,8.745668 c 1.2,0.4376655 2.522797,2.100616 2.507679,3.732212 v 0.06769 0.02343 c -0.03024,2.21605 -1.03937,3.407339 -0.997039,4.882836 0.05443,1.737789 0.802394,2.344025 0.951307,2.633904 -0.255118,-1.071474 -0.404788,-2.419609 -0.06765,-3.487306 0.433096,-1.373076 0.87001,-2.510313 0.83864,-3.586099 -0.01512,-0.251717 -0.122835,-1.194304 -0.194646,-1.611557 1.286513,1.856467 -0.278551,4.556663 0.171591,6.323551 0.78274,3.077994 4.290444,3.466907 3.246538,9.668349 -0.918765,5.45187 -7.214967,9.589621 -13.668397,9.589621 -4.78405,0 -13.074406,-2.647888 -13.484069,-12.040592 0.9725481,-0.06958 2.0183434,-0.340158 2.6048882,-0.330709 1.7733544,0 3.7983878,7.56e-4 5.3241448,0.0014 0.286866,1.29295 0.501921,1.604754 1.589254,2.466093 1.209448,0.951292 1.490985,1.066942 3.280214,1.084328 1.789531,0.01814 2.320176,-0.365481 4.056453,-2.008026 0.37493,-0.439173 0.537071,-1.01478 0.718867,-1.555623 1.785788,-0.01663 3.088214,-0.04842 4.369436,-0.108132 1.304655,-0.059 1.488718,0 3.591231,-0.216567 -2.102513,-0.216567 -2.286576,-0.157228 -3.591231,-0.217323 -1.247244,-0.05673 -2.510325,-0.08886 -4.218255,-0.104693 0.143244,-0.643275 0.348094,-1.27141 0.566173,-1.892761 0.134551,-0.366349 0.292913,-0.723125 0.455055,-1.078012 l 0.17726,-0.05529 c 0.341669,-0.121285 0.643994,-0.380969 0.76456,-0.732454 0.154961,-0.465248 0.04498,-0.987949 -0.255118,-1.368162 -0.103181,-0.142564 -0.231685,-0.324662 -0.28422,-0.404784 -0.158362,-0.250583 -0.162142,-0.389665 -0.02646,-1.320548 0.11263,-0.779323 0.125103,-1.187505 0.04724,-1.582458 -0.01512,-0.226016 -0.0189,-0.69089 -0.02268,-0.815977 0.0601,0.03326 0.189732,0.329197 0.32126,0.729811 0.130772,0.402513 0.151937,0.486033 0.181795,0.828446 0.03402,0.388914 -0.112252,0.677288 -0.232063,1.25743 -0.05972,0.299339 -0.11263,0.577123 -0.11263,0.614922 0,0.04044 0.02646,0.125405 0.0582,0.191622 0.0703,0.147779 0.201827,0.355653 0.226016,0.355653 0.428976,-0.473189 0.681071,-1.0575 0.905575,-1.650107 0.23622,-0.670863 0.305385,-1.382903 0.470929,-2.073419 0.133795,-0.601697 0.288,-1.20376 0.336,-1.821468 0.09713,-1.20452 0.04044,-2.054891 -0.226016,-3.3100493 C 25.029619,9.5414211 24.845178,9.000582 24.717052,8.7454715 Z M 20.49275,14.68032 c 0.460724,-0.0057 0.916535,0.05027 1.350425,0.17537 0.589568,0.226016 0.67234,0.752867 0.78119,1.344348 0.06047,0.377953 0.0582,0.649308 -0.01134,1.093398 -0.048,0.644391 -0.303874,1.142536 -0.862829,1.49288 -0.843212,0.156094 -1.74497,0.306519 -2.459678,-0.251717 -0.600189,-0.826945 -0.961512,-1.871577 -0.823559,-2.890522 0.08731,-0.418008 0.281574,-0.635335 0.681826,-0.765339 0.430489,-0.123553 0.88664,-0.191244 1.343207,-0.198426 z m -6.994281,0.07484 c 0.430488,-0.0042 0.86589,0.04157 1.105512,0.194267 1.027276,0.695415 0.697701,1.826979 0.291402,2.819842 -0.591496,1.299768 -1.870073,1.251756 -3.109758,1.241559 -0.685568,-0.200693 -0.748686,-0.763083 -0.84771,-1.363634 -0.08504,-0.580524 -0.266079,-1.202245 -0.114898,-1.785801 0.388158,-0.938437 1.806955,-1.046528 2.67549,-1.106237 z m 15.671169,0.162141 c 0.0076,2.498211 0.432378,3.725783 1.289159,5.494942 -0.504907,-0.962623 -1.226041,-1.510635 -1.494766,-2.661872 -0.513259,-2.222691 0.04044,-2.098345 0.205607,-2.83307 z m -12.450671,1.809226 c 0.135307,0.137121 0.200693,0.326173 0.317858,0.476587 0.09071,-0.155338 0.183685,-0.309543 0.300095,-0.447106 0.06047,0.0014 0.134551,0.120982 0.201449,0.335244 0.286866,0.792177 0.342803,1.663721 0.71433,2.425273 0.347339,0.551044 -0.126992,0.872304 -0.647433,0.897631 -0.379427,-7.56e-4 -0.540057,-0.260032 -0.762671,-0.516662 -0.05745,0.167811 -0.167055,0.275528 -0.297826,0.388914 -0.332221,0.278929 -0.983396,0.175748 -1.084347,-0.263812 0.134173,-0.839417 0.561676,-1.610056 0.841701,-2.414691 0.139464,-0.293669 0.140976,-0.518929 0.416882,-0.88137 z M 11.843452,20.9667 c 0.167433,0 0.628157,0.312567 0.72189,0.489059 0.06463,0.117128 0.211653,0.574095 0.221858,0.684945 0.01512,0.132284 -0.02268,0.445977 -0.06425,0.531016 -0.03024,0.06044 -0.05291,0.06913 -0.08769,0.02986 -0.03024,-0.03326 -0.414992,-0.773383 -0.661417,-1.263202 -0.193512,-0.391937 -0.213922,-0.471673 -0.130394,-0.471677 z m 9.623282,0.244913 c 0.0076,7.6e-4 0.01512,0.0029 0.02646,0.0057 0.05178,0.02117 0.01512,0.205229 -0.179528,0.87467 -0.03779,0.201827 -0.126992,0.360567 -0.25852,0.492847 -0.04309,0 -0.06274,-0.05027 -0.130771,-0.329953 -0.05745,-0.238602 -0.0635,-0.451007 -0.02268,-0.641492 0.06917,-0.238866 0.349607,-0.311811 0.567648,-0.401752 z m -1.167874,1.458985 c 0.01512,-0.0029 0.03402,0.0057 0.05291,0.0223 0.07105,0.04955 0.08126,0.180283 0.03402,0.43615 -0.05745,0.329197 -0.0703,0.36548 -0.155339,0.39911 -0.0378,0.01663 -0.103181,0.02835 -0.147023,0.02835 -0.07975,-0.01436 -0.100158,-0.07858 -0.08126,-0.176126 0,-0.20485 0.05972,-0.382855 0.195402,-0.592997 0.05102,-0.07899 0.0771,-0.112705 0.101291,-0.116863 z m -6.797329,0.01512 c 0.05443,0 0.218078,0.118261 0.278929,0.199937 0.06765,0.08655 0.144756,0.602453 0.101291,0.691275 -0.04951,0.111837 -0.292157,0.05598 -0.359055,-0.08315 -0.04082,-0.08357 -0.137575,-0.534044 -0.137575,-0.641004 0,-0.09944 0.048,-0.167055 0.11641,-0.167058 z m 6.21343,0.136138 c 0.06614,0.09441 0.08315,0.215811 0.06917,0.481879 l -0.01134,0.242646 -0.06954,0.06913 c -0.04158,0.03901 -0.11263,0.08614 -0.154961,0.105827 -0.09373,0.04384 -0.165543,0.048 -0.178771,0.01285 -0.01512,-0.04728 0.01134,-0.348094 0.04006,-0.449764 0.03402,-0.104692 0.185953,-0.417256 0.23622,-0.48339 0.02268,-0.06043 0.04951,0.01512 0.07106,0.02117 z m -3.953726,-0.01436 c 0.142488,0.03628 0.205606,0.16441 0.283464,0.281197 l 0.05291,0.103975 -0.07408,0.257386 c -0.03931,0.141694 -0.08126,0.269102 -0.09373,0.283464 -0.01512,0.01587 -0.0669,0.02343 -0.144756,0.02268 -0.207874,-0.0057 -0.231685,-0.01436 -0.287622,-0.09898 l -0.05178,-0.07714 0.04384,-0.216566 c 0.06387,-0.311811 0.09449,-0.40554 0.165543,-0.486033 0.03779,-0.04312 0.07408,-0.06686 0.106205,-0.06985 z m -1.315616,0.222992 0.117165,0.117128 0.0189,0.265323 c 0.01134,0.144756 0.01512,0.279685 0.0076,0.295937 -0.0076,0.02305 -0.04951,0.0291 -0.181039,0.0291 H 14.23741 c -0.09147,-0.09985 -0.119811,-0.221858 -0.158362,-0.347716 -0.08957,-0.378698 -0.08957,-0.551411 0.003,-0.574096 0.151937,0.0098 0.251717,0.119849 0.362835,0.2143 z m 4.566727,-0.182173 c 0.185953,0.04985 0.148914,0.345071 0.148158,0.555969 -0.01512,0.341669 -0.02646,0.412713 -0.07181,0.456551 -0.07635,0.07669 -0.288756,0.03402 -0.391937,-0.07941 -0.03402,-0.04086 -0.03779,-0.05371 -0.01134,-0.219591 0.03024,-0.202583 0.06992,-0.328441 0.157229,-0.501532 0.06387,-0.124422 0.123968,-0.202583 0.168567,-0.212031 z m -4.193688,0.01587 c 0.01134,-7.56e-4 0.02646,0 0.04271,0.0014 0.117921,0.0098 0.228283,0.08655 0.325795,0.228284 l 0.07899,0.115994 c 0.0076,0.189732 0,0.389669 -0.03402,0.565783 -0.0189,0.0098 -0.105449,0.02608 -0.188977,0.03402 -0.144756,0.01285 -0.158362,0.0098 -0.20863,-0.03402 -0.06992,-0.05972 -0.08957,-0.170834 -0.10696,-0.539331 -0.01134,-0.300472 -0.003,-0.367748 0.09109,-0.372283 z m 1.786923,0.06316 c 0.126614,0.02646 0.20674,0.09441 0.242268,0.205228 0.02646,0.09528 0.04573,0.628536 0.0189,0.66556 -0.01134,0.0155 -0.06916,0.03553 -0.137574,0.04384 -0.255118,0.0325 -0.480378,0.0087 -0.502678,-0.05257 -0.02646,-0.06913 0.161386,-0.755882 0.231686,-0.840918 0.03024,-0.06614 0.102425,-0.01512 0.148157,-0.02116 z m 1.651616,0.0042 c 0.05594,-0.0057 0.116031,0.048 0.174236,0.162141 0.04724,0.09528 0.05443,0.128542 0.05443,0.34167 0,0.170078 -0.01134,0.243401 -0.02646,0.259275 -0.01512,0.01285 -0.07975,0.03553 -0.147402,0.05257 -0.118299,0.03099 -0.144,0.03402 -0.181039,0.02154 l -0.17726,-0.0325 0.01134,-0.105411 c 0.01134,-0.137575 0.103181,-0.443335 0.167055,-0.575611 0.0378,-0.07858 0.08126,-0.117997 0.125103,-0.123553 z m -0.769852,0.0029 c 0.03779,-0.0014 0.05442,0.0072 0.07786,0.03326 0.05594,0.06614 0.126992,0.261543 0.171591,0.470177 0.06009,0.293669 0.06009,0.292913 -0.06841,0.331464 -0.05594,0.01739 -0.173858,0.03515 -0.258141,0.03999 -0.278174,0.01436 -0.299339,-0.0029 -0.265323,-0.247937 0.02646,-0.218835 0.134551,-0.563898 0.181039,-0.589225 0.05027,-0.02646 0.108472,-0.0257 0.161386,-0.03783 z M 3.319937,24.04402 c 0.00302,-7.56e-4 0.00756,0 0.00756,0 0.00756,0.153449 0.00756,0.30841 0.011339,0.462992 -0.3896692,-0.02986 -0.6761574,-0.122834 -0.6761574,-0.232441 0,-0.107716 0.2762834,-0.199937 0.6606614,-0.230551 z m 0.6810331,0.01285 c 0.3155905,0.03927 0.5336693,0.122116 0.5298897,0.217322 0,0.096 -0.2112755,0.178016 -0.5245984,0.216567 -0.00302,-0.144 -0.00302,-0.288756 -0.00756,-0.433878 z m 14.7445419,0.419894 c 0.02646,-0.0029 0.03855,-0.0042 0.07937,-7.56e-4 0.164031,0.01625 0.187464,0.02646 0.187464,0.08156 0,0.07257 -0.124346,0.290646 -0.208629,0.366236 -0.03931,0.03787 -0.09373,0.06913 -0.11263,0.06913 -0.09449,0 -0.14967,-0.199181 -0.105449,-0.382485 0.02646,-0.09944 0.07559,-0.129978 0.159874,-0.133833 z m -0.59452,0.06542 c 0.07332,-0.0072 0.144,0.01285 0.215055,0.02268 -0.0189,0.207118 -0.113386,0.37644 -0.285732,0.489063 -0.04271,0 -0.06387,-0.0813 -0.06387,-0.25852 0,-0.210898 0.01134,-0.25096 0.134551,-0.253228 z m -0.651931,0.07627 c 0.151937,0 0.285733,0.0072 0.292158,0.0155 0.02646,0.02683 -0.05367,0.230174 -0.173858,0.43615 -0.103181,0.183685 -0.1183,0.196914 -0.182174,0.201827 -0.250204,-0.02835 -0.243023,-0.322016 -0.281574,-0.523831 0,-0.119433 0.02646,-0.129562 0.345448,-0.129562 z m -2.369348,0.02268 c 0.174237,0.0029 0.24189,0.0291 0.24189,0.096 0,0.085 -0.06463,0.254363 -0.101669,0.275528 -0.05594,0.03099 -0.06047,0.0291 -0.170835,-0.08587 -0.173858,-0.195024 -0.193512,-0.231307 0.03024,-0.285732 z m 0.837922,0.0087 c 0.003,0.0042 0.0378,0.06614 0.07105,0.13527 0.0737,0.144378 0.07937,0.207118 0.02646,0.255118 -0.124346,0.07098 -0.150425,0.03099 -0.262677,-0.04086 -0.130771,-0.123553 -0.233952,-0.28989 -0.200315,-0.324283 0.116788,-0.04199 0.244914,-0.02608 0.365481,-0.02532 z m 0.33222,0.0042 0.311055,0.0057 c 0.121323,0 0.226016,0.0057 0.231685,0.01587 0.02268,0.0189 -0.04724,0.423307 -0.08428,0.514772 -0.04271,0.102425 -0.191622,0.103181 -0.268725,-0.01814 -0.109984,-0.173858 -0.182551,-0.320504 -0.184818,-0.421039 z"
       inkscape:connector-curvature="0" />
  </defs>
  <rect
     inkscape:export-ydpi="288"
     inkscape:export-xdpi="288"
     style="opacity:1;fill:#ffffff;fill-opacity:1;stroke:none;stroke-width:3;stroke-linecap:round;stroke-linejoin:round;stroke-miterlimit:4;stroke-dasharray:none;stroke-dashoffset:0;stroke-opacity:1"
     id="rect1149"
     width="500"
     height="500"
     x="361.16803"
     y="-37.20322" />
  <rect
     y="0"
     x="-400"
     height="290.76514"
     width="512.55804"
     id="rect1114"
     style="opacity:1;fill:#ffffff;fill-opacity:1;stroke:none;stroke-width:3.00000024;stroke-linecap:round;stroke-linejoin:round;stroke-miterlimit:4;stroke-dasharray:none;stroke-dashoffset:0;stroke-opacity:1"
     inkscape:export-xdpi="354.92999"
     inkscape:export-ydpi="354.92999" />
  <text
     x="-375.53381"
     y="70.002014"
     style="font-weight:900;font-size:48px;font-family:'Roboto condensed';fill:#845ef7"
     id="text975">#WeAreFreeSewing</text>
  <text
     x="-375.53381"
     y="100.00201"
     style="font-weight:600;font-size:24px;font-family:'Roboto condensed';fill:#845ef7"
     id="text977">We are a community of makers</text>
  <path
     d="m -210.44806,208.24862 c 41.82207,-4.37415 77.89513,-17.25487 118.494669,-25.22343 59.971152,-11.77066 148.800792,4.23687 177.054482,-32.78463 C 112.87901,113.84248 35.069531,78.086198 18.053281,38.88078 4.2156313,6.9988483 29.060321,-33.15621 -5.0319987,-57.426021 -39.175169,-81.732045 -100.93252,-68.960803 -148.37371,-79.59613 c -50.31396,-11.279341 -89.74251,-44.46652 -142.71568,-41.95801 -55.31735,2.61952 -105.09401,26.777225 -140.04551,55.347995 -34.41706,28.133907 -59.50849,65.1414034 -51.16049,100.95159 7.93181,34.024856 70.97881,48.959873 93.34946,80.025135 21.74094,30.1908 -6.29305,75.10538 33.29067,95.83508 38.79159,20.31488 96.39212,2.74851 145.2072,-2.35704"
     id="path1001"
     inkscape:connector-curvature="0"
     style="fill:#845ef7;stroke:none;stroke-width:1" />
  <use
     xlink:href="#logo"
     x="0"
     y="0"
     style="fill:#f8f9fa"
     clip-path="url(#blobs-clip)"
     id="use1007"
     width="100%"
     height="100%"
     transform="translate(-190.53383,-24.997992)" />
  <use
     xlink:href="#logo"
     x="0"
     y="0"
     style="fill:#f8f9fa"
     clip-path="url(#blobs-clip)"
     id="use1009"
     width="100%"
     height="100%"
     transform="translate(-190.53383,-24.997992)" />
  <use
     xlink:href="#logo"
     x="0"
     y="0"
     style="fill:#f8f9fa"
     clip-path="url(#blobs-clip)"
     id="use1011"
     width="100%"
     height="100%"
     transform="translate(-190.53383,-24.997992)" />
  <text
     x="-375.53381"
     y="70.002014"
     clip-path="none"
     style="font-weight:900;font-size:48px;font-family:'Roboto condensed';fill:#f8f9fa"
     id="text1013">#WeAreFreeSewing</text>
  <text
     x="-375.53381"
     y="100.00201"
     clip-path="none"
     style="font-weight:600;font-size:24px;font-family:'Roboto condensed';fill:#f8f9fa"
     id="text1015">We are a community of makers</text>
  <text
     x="-375.53381"
     y="127.002"
     clip-path="none"
     style="font-weight:600;font-size:24px;font-family:'Roboto condensed';fill:#f8f9fa"
     id="text1017">We provide made-to-measure sewing patterns</text>
  <image
     x="510"
     y="130"
     href="/contributors/wouter.jpg"
     clip-path="url(#clip-avatar)"
     id="image1021"
     transform="translate(-190.53383,-24.997992)" />
  <image
     x="-20"
     y="290"
     href="https://static.freesewing.org/users/a/admin/admin.svg"
     clip-path="url(#clip-patron)"
     id="image1039"
     transform="translate(-190.53383,-24.997992)" />
  <use
     xlink:href="#logo"
     x="0"
     y="0"
     style="fill:#212529;stroke-width:1.60866773"
     id="use973"
     transform="matrix(0.62163241,0,0,0.62163241,-175.69121,66.574423)"
     width="100%"
     height="100%" />
  <text
     id="text1081"
     style="font-weight:600;font-size:24px;font-family:'Roboto condensed';fill:#000000"
     clip-path="none"
     y="267.18555"
     x="-384.0556">
    <tspan
       style="fill:#212529;fill-opacity:1"
       id="tspan1087">Join us at freesewing.org</tspan>
  </text>
  <path
     style="fill:#845ef7;stroke:none;stroke-width:0.99999988"
     inkscape:connector-curvature="0"
     id="path1122"
     d="M 624.74851,240.52071 C 657.14724,228.77376 683.3466,209.72769 714.0848,194.68112 759.48938,172.45526 833.15286,172.2643 848.51085,130.98743 863.61023,90.405639 794.9195,69.301127 773.88165,33.9683 756.77364,5.2355735 768.82179,-38.499556 737.07589,-56.16647 c -31.79328,-17.693277 -78.4256,5.830728 -118.16688,3.890943 -42.14778,-2.057245 -79.84375,-27.499016 -121.46214,-15.587319 -43.46009,12.438821 -78.38859,44.968052 -100.68928,79.169826 -21.95969,33.678807 -34.80723,74.377452 -21.30906,107.93478 12.82522,31.88432 65.79298,35.24632 89.52586,61.65648 23.06483,25.66674 9.39431,74.62938 44.82585,87.85126 34.7225,12.95731 77.13221,-14.51765 114.94827,-28.22879" />
  <use
     transform="translate(574.67282,-24.997992)"
     height="100%"
     width="100%"
     id="use1124"
     clip-path="url(#blobs-clip)"
     style="fill:#f8f9fa"
     y="0"
     x="0"
     xlink:href="#logo" />
  <use
     transform="translate(574.67282,-24.997992)"
     height="100%"
     width="100%"
     id="use1126"
     clip-path="url(#blobs-clip)"
     style="fill:#f8f9fa"
     y="0"
     x="0"
     xlink:href="#logo" />
  <use
     transform="translate(574.67282,-24.997992)"
     height="100%"
     width="100%"
     id="use1128"
     clip-path="url(#blobs-clip)"
     style="fill:#f8f9fa"
     y="0"
     x="0"
     xlink:href="#logo" />
  <g
     id="g1147">
    <text
       x="389.67282"
       y="70.002014"
       style="font-weight:900;font-size:48px;font-family:'Roboto condensed';fill:#845ef7"
       id="text1118">#WeAreFreeSewing</text>
    <text
       x="389.67282"
       y="100.00201"
       style="font-weight:600;font-size:24px;font-family:'Roboto condensed';fill:#845ef7"
       id="text1120">We are a community of makers</text>
    <text
       x="389.67282"
       y="70.002014"
       clip-path="none"
       style="font-weight:900;font-size:48px;font-family:'Roboto condensed';fill:#f8f9fa"
       id="text1130">#WeAreFreeSewing</text>
    <text
       x="389.67282"
       y="100.00201"
       clip-path="none"
       style="font-weight:600;font-size:24px;font-family:'Roboto condensed';fill:#f8f9fa"
       id="text1132">We are a community of makers</text>
    <text
       x="389.67282"
       y="127.002"
       clip-path="none"
       style="font-weight:600;font-size:24px;font-family:'Roboto condensed';fill:#f8f9fa"
       id="text1134">We provide made-to-measure sewing patterns</text>
  </g>
  <use
     height="100%"
     width="100%"
     transform="matrix(0.91645571,0,0,0.91645571,483.48665,101.32128)"
     id="use1136"
     style="fill:#212529;stroke-width:1.09116018"
     y="0"
     x="0"
     xlink:href="#logo" />
  <path
     style="fill:#845ef7;stroke:none;stroke-width:1"
     inkscape:connector-curvature="0"
     id="path1151"
     d="m 497.97167,700.63214 c 45.7722,-4.78729 85.25239,-18.88461 129.68659,-27.60581 65.63547,-12.8824 162.85514,4.63705 193.77742,-35.88116 30.40156,-39.83591 -54.75708,-78.9694 -73.38053,-121.8778 -15.14463,-34.8932 -12.67168,-95.14454 -49.98405,-121.70665 -37.36802,-26.60174 -107.58802,4.73119 -159.51007,-6.90866 -55.06615,-12.34468 -79.28556,-76.54029 -137.26209,-73.79485 -60.54211,2.86693 -78.20565,66.64684 -116.45835,97.91614 -37.66778,30.79117 -33.04785,71.29406 -23.91137,110.48655 8.68097,37.23853 17.20174,43.06572 41.68532,77.06512 23.79439,33.04235 -6.88744,82.19914 36.435,104.88678 42.45548,22.23364 105.49643,3.00811 158.92213,-2.57966"
     sodipodi:nodetypes="cssssssssssc" />
  <text
     x="382.95383"
     y="429.15302"
     clip-path="none"
     style="font-weight:600;font-size:29.35695267px;font-family:'Roboto condensed';fill:#ffffff;stroke-width:1"
     id="text1140">
    <tspan
       id="tspan1138"
       style="fill:#ffffff;fill-opacity:1;stroke-width:0.91370028">Join us at freesewing.org</tspan>
  </text>
</svg>
